<mxfile host="app.diagrams.net" modified="2023-10-25T13:20:45.160Z" agent="Mozilla/5.0 (Windows NT 10.0; Win64; x64) AppleWebKit/537.36 (KHTML, like Gecko) Chrome/117.0.0.0 Safari/537.36" etag="p6HB0MJ_jLaYVAQ3GAZp" version="22.0.8" type="github">
  <diagram id="C5RBs43oDa-KdzZeNtuy" name="Page-1">
    <mxGraphModel dx="1217" dy="509" grid="1" gridSize="10" guides="1" tooltips="1" connect="1" arrows="1" fold="1" page="1" pageScale="1" pageWidth="827" pageHeight="1169" math="0" shadow="0">
      <root>
        <mxCell id="WIyWlLk6GJQsqaUBKTNV-0" />
        <mxCell id="WIyWlLk6GJQsqaUBKTNV-1" parent="WIyWlLk6GJQsqaUBKTNV-0" />
        <mxCell id="b6zeak8JQOafDYQdbO55-0" value="«interface»&lt;br&gt;&lt;b&gt;ProjectileFactory&lt;/b&gt;" style="html=1;whiteSpace=wrap;" vertex="1" parent="WIyWlLk6GJQsqaUBKTNV-1">
          <mxGeometry x="140" y="60" width="160" height="50" as="geometry" />
        </mxCell>
        <mxCell id="b6zeak8JQOafDYQdbO55-1" value="abstract class Projectile" style="swimlane;fontStyle=0;childLayout=stackLayout;horizontal=1;startSize=26;fillColor=none;horizontalStack=0;resizeParent=1;resizeParentMax=0;resizeLast=0;collapsible=1;marginBottom=0;whiteSpace=wrap;html=1;" vertex="1" parent="WIyWlLk6GJQsqaUBKTNV-1">
          <mxGeometry x="520" y="110" width="140" height="104" as="geometry" />
        </mxCell>
        <mxCell id="b6zeak8JQOafDYQdbO55-2" value="+ lives: int" style="text;strokeColor=none;fillColor=none;align=left;verticalAlign=top;spacingLeft=4;spacingRight=4;overflow=hidden;rotatable=0;points=[[0,0.5],[1,0.5]];portConstraint=eastwest;whiteSpace=wrap;html=1;" vertex="1" parent="b6zeak8JQOafDYQdbO55-1">
          <mxGeometry y="26" width="140" height="26" as="geometry" />
        </mxCell>
        <mxCell id="b6zeak8JQOafDYQdbO55-3" value="+ position: Vector" style="text;strokeColor=none;fillColor=none;align=left;verticalAlign=top;spacingLeft=4;spacingRight=4;overflow=hidden;rotatable=0;points=[[0,0.5],[1,0.5]];portConstraint=eastwest;whiteSpace=wrap;html=1;" vertex="1" parent="b6zeak8JQOafDYQdbO55-1">
          <mxGeometry y="52" width="140" height="26" as="geometry" />
        </mxCell>
        <mxCell id="b6zeak8JQOafDYQdbO55-4" value="+ image: Image" style="text;strokeColor=none;fillColor=none;align=left;verticalAlign=top;spacingLeft=4;spacingRight=4;overflow=hidden;rotatable=0;points=[[0,0.5],[1,0.5]];portConstraint=eastwest;whiteSpace=wrap;html=1;" vertex="1" parent="b6zeak8JQOafDYQdbO55-1">
          <mxGeometry y="78" width="140" height="26" as="geometry" />
        </mxCell>
        <mxCell id="b6zeak8JQOafDYQdbO55-9" value="EnemyProjectile" style="swimlane;fontStyle=1;align=center;verticalAlign=top;childLayout=stackLayout;horizontal=1;startSize=26;horizontalStack=0;resizeParent=1;resizeParentMax=0;resizeLast=0;collapsible=1;marginBottom=0;whiteSpace=wrap;html=1;" vertex="1" parent="WIyWlLk6GJQsqaUBKTNV-1">
          <mxGeometry x="495" y="274" width="190" height="86" as="geometry" />
        </mxCell>
        <mxCell id="b6zeak8JQOafDYQdbO55-10" value="+ strategy: ProjectileStrategy" style="text;strokeColor=none;fillColor=none;align=left;verticalAlign=top;spacingLeft=4;spacingRight=4;overflow=hidden;rotatable=0;points=[[0,0.5],[1,0.5]];portConstraint=eastwest;whiteSpace=wrap;html=1;" vertex="1" parent="b6zeak8JQOafDYQdbO55-9">
          <mxGeometry y="26" width="190" height="26" as="geometry" />
        </mxCell>
        <mxCell id="b6zeak8JQOafDYQdbO55-11" value="" style="line;strokeWidth=1;fillColor=none;align=left;verticalAlign=middle;spacingTop=-1;spacingLeft=3;spacingRight=3;rotatable=0;labelPosition=right;points=[];portConstraint=eastwest;strokeColor=inherit;" vertex="1" parent="b6zeak8JQOafDYQdbO55-9">
          <mxGeometry y="52" width="190" height="8" as="geometry" />
        </mxCell>
        <mxCell id="b6zeak8JQOafDYQdbO55-12" value="+ method(type): type" style="text;strokeColor=none;fillColor=none;align=left;verticalAlign=top;spacingLeft=4;spacingRight=4;overflow=hidden;rotatable=0;points=[[0,0.5],[1,0.5]];portConstraint=eastwest;whiteSpace=wrap;html=1;" vertex="1" parent="b6zeak8JQOafDYQdbO55-9">
          <mxGeometry y="60" width="190" height="26" as="geometry" />
        </mxCell>
        <mxCell id="b6zeak8JQOafDYQdbO55-13" value="«interface»&lt;br&gt;&lt;div style=&quot;background-color: rgb(43, 43, 43); color: rgb(169, 183, 198); font-family: &amp;quot;JetBrains Mono&amp;quot;, monospace; font-size: 9.8pt;&quot;&gt;Renderable&lt;/div&gt;" style="html=1;whiteSpace=wrap;" vertex="1" parent="WIyWlLk6GJQsqaUBKTNV-1">
          <mxGeometry x="460" y="40" width="110" height="50" as="geometry" />
        </mxCell>
        <mxCell id="b6zeak8JQOafDYQdbO55-14" value="«interface»&lt;br&gt;&lt;div style=&quot;background-color: rgb(43, 43, 43); color: rgb(169, 183, 198); font-family: &amp;quot;JetBrains Mono&amp;quot;, monospace; font-size: 9.8pt;&quot;&gt;GameObject&lt;/div&gt;" style="html=1;whiteSpace=wrap;" vertex="1" parent="WIyWlLk6GJQsqaUBKTNV-1">
          <mxGeometry x="612" y="40" width="110" height="50" as="geometry" />
        </mxCell>
        <mxCell id="b6zeak8JQOafDYQdbO55-15" value="" style="endArrow=block;dashed=1;endFill=0;endSize=12;html=1;rounded=0;entryX=0.5;entryY=1;entryDx=0;entryDy=0;" edge="1" parent="WIyWlLk6GJQsqaUBKTNV-1" target="b6zeak8JQOafDYQdbO55-13">
          <mxGeometry width="160" relative="1" as="geometry">
            <mxPoint x="590" y="110" as="sourcePoint" />
            <mxPoint x="490" y="270" as="targetPoint" />
          </mxGeometry>
        </mxCell>
        <mxCell id="b6zeak8JQOafDYQdbO55-16" value="" style="endArrow=block;dashed=1;endFill=0;endSize=12;html=1;rounded=0;entryX=0.5;entryY=1;entryDx=0;entryDy=0;exitX=0.5;exitY=0;exitDx=0;exitDy=0;" edge="1" parent="WIyWlLk6GJQsqaUBKTNV-1" source="b6zeak8JQOafDYQdbO55-1" target="b6zeak8JQOafDYQdbO55-14">
          <mxGeometry width="160" relative="1" as="geometry">
            <mxPoint x="594" y="121" as="sourcePoint" />
            <mxPoint x="525" y="100" as="targetPoint" />
          </mxGeometry>
        </mxCell>
        <mxCell id="b6zeak8JQOafDYQdbO55-17" value="Extends" style="endArrow=block;endSize=16;endFill=0;html=1;rounded=0;exitX=0.5;exitY=0;exitDx=0;exitDy=0;" edge="1" parent="WIyWlLk6GJQsqaUBKTNV-1" source="b6zeak8JQOafDYQdbO55-9" target="b6zeak8JQOafDYQdbO55-4">
          <mxGeometry width="160" relative="1" as="geometry">
            <mxPoint x="330" y="270" as="sourcePoint" />
            <mxPoint x="490" y="270" as="targetPoint" />
          </mxGeometry>
        </mxCell>
        <mxCell id="b6zeak8JQOafDYQdbO55-18" value="PlayerProjectile" style="swimlane;fontStyle=1;align=center;verticalAlign=top;childLayout=stackLayout;horizontal=1;startSize=26;horizontalStack=0;resizeParent=1;resizeParentMax=0;resizeLast=0;collapsible=1;marginBottom=0;whiteSpace=wrap;html=1;" vertex="1" parent="WIyWlLk6GJQsqaUBKTNV-1">
          <mxGeometry x="700" y="250" width="190" height="86" as="geometry" />
        </mxCell>
        <mxCell id="b6zeak8JQOafDYQdbO55-19" value="+ strategy: ProjectileStrategy" style="text;strokeColor=none;fillColor=none;align=left;verticalAlign=top;spacingLeft=4;spacingRight=4;overflow=hidden;rotatable=0;points=[[0,0.5],[1,0.5]];portConstraint=eastwest;whiteSpace=wrap;html=1;" vertex="1" parent="b6zeak8JQOafDYQdbO55-18">
          <mxGeometry y="26" width="190" height="26" as="geometry" />
        </mxCell>
        <mxCell id="b6zeak8JQOafDYQdbO55-20" value="" style="line;strokeWidth=1;fillColor=none;align=left;verticalAlign=middle;spacingTop=-1;spacingLeft=3;spacingRight=3;rotatable=0;labelPosition=right;points=[];portConstraint=eastwest;strokeColor=inherit;" vertex="1" parent="b6zeak8JQOafDYQdbO55-18">
          <mxGeometry y="52" width="190" height="8" as="geometry" />
        </mxCell>
        <mxCell id="b6zeak8JQOafDYQdbO55-21" value="+ method(type): type" style="text;strokeColor=none;fillColor=none;align=left;verticalAlign=top;spacingLeft=4;spacingRight=4;overflow=hidden;rotatable=0;points=[[0,0.5],[1,0.5]];portConstraint=eastwest;whiteSpace=wrap;html=1;" vertex="1" parent="b6zeak8JQOafDYQdbO55-18">
          <mxGeometry y="60" width="190" height="26" as="geometry" />
        </mxCell>
        <mxCell id="b6zeak8JQOafDYQdbO55-22" value="Extends" style="endArrow=block;endSize=16;endFill=0;html=1;rounded=0;exitX=0.453;exitY=-0.011;exitDx=0;exitDy=0;exitPerimeter=0;entryX=1;entryY=0.5;entryDx=0;entryDy=0;" edge="1" parent="WIyWlLk6GJQsqaUBKTNV-1" source="b6zeak8JQOafDYQdbO55-18" target="b6zeak8JQOafDYQdbO55-3">
          <mxGeometry width="160" relative="1" as="geometry">
            <mxPoint x="555" y="270" as="sourcePoint" />
            <mxPoint x="590" y="224" as="targetPoint" />
            <Array as="points">
              <mxPoint x="786" y="175" />
            </Array>
          </mxGeometry>
        </mxCell>
        <mxCell id="b6zeak8JQOafDYQdbO55-23" value="EnemyProjectileFactory" style="swimlane;fontStyle=1;align=center;verticalAlign=top;childLayout=stackLayout;horizontal=1;startSize=26;horizontalStack=0;resizeParent=1;resizeParentMax=0;resizeLast=0;collapsible=1;marginBottom=0;whiteSpace=wrap;html=1;" vertex="1" parent="WIyWlLk6GJQsqaUBKTNV-1">
          <mxGeometry y="214" width="220" height="60" as="geometry" />
        </mxCell>
        <mxCell id="b6zeak8JQOafDYQdbO55-25" value="" style="line;strokeWidth=1;fillColor=none;align=left;verticalAlign=middle;spacingTop=-1;spacingLeft=3;spacingRight=3;rotatable=0;labelPosition=right;points=[];portConstraint=eastwest;strokeColor=inherit;" vertex="1" parent="b6zeak8JQOafDYQdbO55-23">
          <mxGeometry y="26" width="220" height="8" as="geometry" />
        </mxCell>
        <mxCell id="b6zeak8JQOafDYQdbO55-26" value="+ createProjectile(...): Projectile" style="text;strokeColor=none;fillColor=none;align=left;verticalAlign=top;spacingLeft=4;spacingRight=4;overflow=hidden;rotatable=0;points=[[0,0.5],[1,0.5]];portConstraint=eastwest;whiteSpace=wrap;html=1;" vertex="1" parent="b6zeak8JQOafDYQdbO55-23">
          <mxGeometry y="34" width="220" height="26" as="geometry" />
        </mxCell>
        <mxCell id="b6zeak8JQOafDYQdbO55-27" value="PlayerProjectileFactory" style="swimlane;fontStyle=1;align=center;verticalAlign=top;childLayout=stackLayout;horizontal=1;startSize=26;horizontalStack=0;resizeParent=1;resizeParentMax=0;resizeLast=0;collapsible=1;marginBottom=0;whiteSpace=wrap;html=1;" vertex="1" parent="WIyWlLk6GJQsqaUBKTNV-1">
          <mxGeometry x="250" y="210" width="220" height="60" as="geometry" />
        </mxCell>
        <mxCell id="b6zeak8JQOafDYQdbO55-28" value="" style="line;strokeWidth=1;fillColor=none;align=left;verticalAlign=middle;spacingTop=-1;spacingLeft=3;spacingRight=3;rotatable=0;labelPosition=right;points=[];portConstraint=eastwest;strokeColor=inherit;" vertex="1" parent="b6zeak8JQOafDYQdbO55-27">
          <mxGeometry y="26" width="220" height="8" as="geometry" />
        </mxCell>
        <mxCell id="b6zeak8JQOafDYQdbO55-29" value="+ createProjectile(...): Projectile" style="text;strokeColor=none;fillColor=none;align=left;verticalAlign=top;spacingLeft=4;spacingRight=4;overflow=hidden;rotatable=0;points=[[0,0.5],[1,0.5]];portConstraint=eastwest;whiteSpace=wrap;html=1;" vertex="1" parent="b6zeak8JQOafDYQdbO55-27">
          <mxGeometry y="34" width="220" height="26" as="geometry" />
        </mxCell>
        <mxCell id="b6zeak8JQOafDYQdbO55-30" value="Extends" style="endArrow=block;endSize=16;endFill=0;html=1;rounded=0;exitX=0.5;exitY=0;exitDx=0;exitDy=0;entryX=0.5;entryY=1;entryDx=0;entryDy=0;" edge="1" parent="WIyWlLk6GJQsqaUBKTNV-1" source="b6zeak8JQOafDYQdbO55-23" target="b6zeak8JQOafDYQdbO55-0">
          <mxGeometry width="160" relative="1" as="geometry">
            <mxPoint x="330" y="240" as="sourcePoint" />
            <mxPoint x="490" y="240" as="targetPoint" />
            <Array as="points">
              <mxPoint x="110" y="170" />
              <mxPoint x="220" y="170" />
            </Array>
          </mxGeometry>
        </mxCell>
        <mxCell id="b6zeak8JQOafDYQdbO55-31" value="Extends" style="endArrow=block;endSize=16;endFill=0;html=1;rounded=0;exitX=0.5;exitY=0;exitDx=0;exitDy=0;entryX=0.5;entryY=1;entryDx=0;entryDy=0;" edge="1" parent="WIyWlLk6GJQsqaUBKTNV-1" source="b6zeak8JQOafDYQdbO55-27" target="b6zeak8JQOafDYQdbO55-0">
          <mxGeometry width="160" relative="1" as="geometry">
            <mxPoint x="330" y="240" as="sourcePoint" />
            <mxPoint x="490" y="240" as="targetPoint" />
            <Array as="points">
              <mxPoint x="360" y="170" />
              <mxPoint x="220" y="170" />
            </Array>
          </mxGeometry>
        </mxCell>
        <mxCell id="b6zeak8JQOafDYQdbO55-32" value="" style="endArrow=open;endFill=1;endSize=12;html=1;rounded=0;entryX=-0.005;entryY=0.177;entryDx=0;entryDy=0;entryPerimeter=0;" edge="1" parent="WIyWlLk6GJQsqaUBKTNV-1" source="b6zeak8JQOafDYQdbO55-27" target="b6zeak8JQOafDYQdbO55-1">
          <mxGeometry width="160" relative="1" as="geometry">
            <mxPoint x="330" y="240" as="sourcePoint" />
            <mxPoint x="520" y="140" as="targetPoint" />
            <Array as="points">
              <mxPoint x="360" y="128" />
            </Array>
          </mxGeometry>
        </mxCell>
        <mxCell id="b6zeak8JQOafDYQdbO55-33" value="" style="endArrow=open;endFill=1;endSize=12;html=1;rounded=0;exitX=0.5;exitY=0;exitDx=0;exitDy=0;entryX=0;entryY=0.5;entryDx=0;entryDy=0;" edge="1" parent="WIyWlLk6GJQsqaUBKTNV-1" source="b6zeak8JQOafDYQdbO55-23" target="b6zeak8JQOafDYQdbO55-2">
          <mxGeometry width="160" relative="1" as="geometry">
            <mxPoint x="-90" y="60" as="sourcePoint" />
            <mxPoint x="70" y="-10" as="targetPoint" />
            <Array as="points">
              <mxPoint x="110" y="150" />
            </Array>
          </mxGeometry>
        </mxCell>
      </root>
    </mxGraphModel>
  </diagram>
</mxfile>
